<svg width="49" height="48" viewBox="0 0 49 48" fill="none" xmlns="http://www.w3.org/2000/svg">
<circle cx="24.5" cy="24" r="24" transform="rotate(-180 24.5 24)" fill="#FFDE40"/>
<path d="M35.75 25.5C36.5784 25.5 37.25 24.8284 37.25 24C37.25 23.1716 36.5784 22.5 35.75 22.5L35.75 25.5ZM12.1893 22.9393C11.6036 23.5251 11.6036 24.4749 12.1893 25.0607L21.7353 34.6066C22.3211 35.1924 23.2708 35.1924 23.8566 34.6066C24.4424 34.0208 24.4424 33.0711 23.8566 32.4853L15.3713 24L23.8566 15.5147C24.4424 14.9289 24.4424 13.9792 23.8566 13.3934C23.2708 12.8076 22.3211 12.8076 21.7353 13.3934L12.1893 22.9393ZM35.75 22.5L13.25 22.5L13.25 25.5L35.75 25.5L35.75 22.5Z" fill="#21201F"/>
</svg>
